<svg width="32" height="32" viewBox="0 0 32 32" fill="none" xmlns="http://www.w3.org/2000/svg">
<rect width="32" height="32" rx="7" fill="#002244"/>
<path d="M16.44 23.14C14.8 23.14 13.4533 22.7533 12.4 21.98C11.3467 21.1933 10.78 20.0733 10.7 18.62H14.88C14.92 19.1133 15.0667 19.4733 15.32 19.7C15.5733 19.9267 15.9 20.04 16.3 20.04C16.66 20.04 16.9533 19.9533 17.18 19.78C17.42 19.5933 17.54 19.34 17.54 19.02C17.54 18.6067 17.3467 18.2867 16.96 18.06C16.5733 17.8333 15.9467 17.58 15.08 17.3C14.16 16.9933 13.4133 16.7 12.84 16.42C12.28 16.1267 11.7867 15.7067 11.36 15.16C10.9467 14.6 10.74 13.8733 10.74 12.98C10.74 12.0733 10.9667 11.3 11.42 10.66C11.8733 10.0067 12.5 9.51333 13.3 9.18C14.1 8.84667 15.0067 8.68 16.02 8.68C17.66 8.68 18.9667 9.06667 19.94 9.84C20.9267 10.6 21.4533 11.6733 21.52 13.06H17.26C17.2467 12.6333 17.1133 12.3133 16.86 12.1C16.62 11.8867 16.3067 11.78 15.92 11.78C15.6267 11.78 15.3867 11.8667 15.2 12.04C15.0133 12.2133 14.92 12.46 14.92 12.78C14.92 13.0467 15.02 13.28 15.22 13.48C15.4333 13.6667 15.6933 13.8333 16 13.98C16.3067 14.1133 16.76 14.2867 17.36 14.5C18.2533 14.8067 18.9867 15.1133 19.56 15.42C20.1467 15.7133 20.6467 16.1333 21.06 16.68C21.4867 17.2133 21.7 17.8933 21.7 18.72C21.7 19.56 21.4867 20.3133 21.06 20.98C20.6467 21.6467 20.04 22.1733 19.24 22.56C18.4533 22.9467 17.52 23.14 16.44 23.14Z" fill="#F1F1F1"/>
</svg>
